<!-- Generated by IcoMoon.io -->
<svg version="1.1" xmlns="http://www.w3.org/2000/svg" width="1024" height="1024" viewBox="0 0 1024 1024">
<title></title>
<g id="icomoon-ignore">
</g>
<path fill="#f3f4f5" d="M512.010 1024c-282.788 0-512.010-229.222-512.010-511.99 0-282.788 229.222-512.010 512.010-512.010 282.767 0 511.99 229.222 511.99 512.010 0 282.767-229.222 511.99-511.99 511.99z"></path>
<path fill="#666f83" d="M465.306 225.28h103.608l-18.647 350.382h-69.427l-15.534-350.382zM564.081 689.828c13.046 12.38 19.599 27.341 19.599 44.974 0 19.896-6.605 35.533-19.825 46.868-13.24 11.366-28.672 17.050-46.285 17.050-17.92 0-33.567-5.601-46.94-16.835-13.373-11.223-20.070-26.911-20.070-47.084 0-17.623 6.41-32.594 19.18-44.974 12.78-12.339 28.426-18.524 46.95-18.524 18.493 0 34.304 6.185 47.391 18.524z"></path>
</svg>
